<?xml version="1.0" encoding="UTF-8" standalone="no"?>
<!-- Created with Inkscape (http://www.inkscape.org/) -->

<svg
   xmlns:dc="http://purl.org/dc/elements/1.1/"
   xmlns:cc="http://creativecommons.org/ns#"
   xmlns:rdf="http://www.w3.org/1999/02/22-rdf-syntax-ns#"
   xmlns:svg="http://www.w3.org/2000/svg"
   xmlns="http://www.w3.org/2000/svg"
   xmlns:sodipodi="http://sodipodi.sourceforge.net/DTD/sodipodi-0.dtd"
   xmlns:inkscape="http://www.inkscape.org/namespaces/inkscape"
   version="1.0"
   width="173.16946"
   height="173.21486"
   id="svg3195"
   inkscape:version="0.48.2 r9819"
   sodipodi:docname="spherical_trigonometry_Intersecting circles.svg">
  <metadata
     id="metadata3061">
    <rdf:RDF>
      <cc:Work
         rdf:about="">
        <dc:format>image/svg+xml</dc:format>
        <dc:type
           rdf:resource="http://purl.org/dc/dcmitype/StillImage" />
        <dc:title />
      </cc:Work>
    </rdf:RDF>
  </metadata>
  <sodipodi:namedview
     pagecolor="#ffffff"
     bordercolor="#666666"
     borderopacity="1"
     objecttolerance="10"
     gridtolerance="10"
     guidetolerance="10"
     inkscape:pageopacity="0"
     inkscape:pageshadow="2"
     inkscape:window-width="1280"
     inkscape:window-height="948"
     id="namedview3059"
     showgrid="false"
     inkscape:zoom="2.8284271"
     inkscape:cx="93.515085"
     inkscape:cy="91.451678"
     inkscape:window-x="-4"
     inkscape:window-y="-4"
     inkscape:window-maximized="1"
     inkscape:current-layer="svg3195"
     fit-margin-top="0"
     fit-margin-left="0"
     fit-margin-right="0"
     fit-margin-bottom="0"
     inkscape:showpageshadow="false" />
  <defs
     id="defs3197">
    <filter
       id="filter3286"
       color-interpolation-filters="sRGB">
      <feGaussianBlur
         id="feGaussianBlur3288"
         stdDeviation="0.11117386"
         inkscape:collect="always" />
    </filter>
  </defs>
  <path
     inkscape:connector-curvature="0"
     id="path3213"
     style="fill:none;stroke:#000000;stroke-width:1.5;stroke-linecap:butt;stroke-linejoin:round;stroke-miterlimit:4;stroke-opacity:1;stroke-dasharray:none;stroke-dashoffset:5.4"
     d="m 172.41946,86.607428 a 85.834734,85.834734 0 1 1 -171.669457,0 85.834734,85.834734 0 1 1 171.669457,0 z" />
  <path
     inkscape:connector-curvature="0"
     id="path3215"
     style="fill:none;stroke:#000000;stroke-width:1.25;stroke-linecap:butt;stroke-linejoin:miter;stroke-miterlimit:4;stroke-opacity:1;stroke-dasharray:3.75, 1.25;stroke-dashoffset:0"
     d="M 137.22632,155.91133 A 85.834728,35.501253 53.843738 1 1 35.943141,17.303533" />
  <path
     inkscape:connector-curvature="0"
     id="path3221"
     style="fill:none;stroke:#000000;stroke-width:1.25;stroke-linecap:butt;stroke-linejoin:miter;stroke-miterlimit:4;stroke-opacity:1;stroke-dasharray:3.75, 1.25;stroke-dashoffset:0"
     d="M 0.750003,86.607428 C 0.745103,74.648958 9.993656,62.763112 25.88386,54.306292 m 0,0 c 7.919017,-4.214528 17.438944,-7.551536 27.779091,-9.838938 m 0,0 c 10.408268,-2.302471 21.647594,-3.541462 32.921774,-3.541462 2.71197,0 9.31101,-0.281863 12.00787,-0.140922 m 12.331775,1.889764 c 12.42067,2.251782 27.08117,6.692685 36.36123,11.631558 15.89021,8.45682 25.13871,20.342666 25.13386,32.301136"
     sodipodi:nodetypes="cccccsccsc" />
  <path
     inkscape:connector-curvature="0"
     id="path3233"
     style="fill:#ff0000;fill-opacity:1;stroke:none"
     d="m 31.684458,121.20128 a 1.1670182,1.1670182 0 0 1 -2.334036,0 1.1670182,1.1670182 0 1 1 2.334036,0 z" />
  <path
     inkscape:connector-curvature="0"
     id="path3235"
     style="fill:#ff0000;fill-opacity:1;stroke:none"
     d="m 104.72227,51.148687 a 1.16702,1.16702 0 0 1 -2.33404,0 1.16702,1.16702 0 1 1 2.33404,0 z" />
  <path
     inkscape:connector-curvature="0"
     id="path3223"
     style="fill:none;stroke:#000000;stroke-width:1.5;stroke-linecap:butt;stroke-linejoin:round;stroke-miterlimit:4;stroke-opacity:1;stroke-dasharray:none;stroke-dashoffset:5.4"
     d="M 22.168286,143.33594 A 16.93956,85.834732 48.631158 0 1 151.00117,29.878924" />
  <path
     inkscape:connector-curvature="0"
     id="path3225"
     style="fill:none;stroke:#000000;stroke-width:1.25;stroke-linecap:butt;stroke-linejoin:miter;stroke-miterlimit:4;stroke-opacity:1;stroke-dasharray:3.75, 1.25;stroke-dashoffset:0"
     d="M 151.00117,29.878924 A 16.93956,85.834732 48.631158 1 1 22.168286,143.33594" />
  <path
     inkscape:connector-curvature="0"
     id="path3237"
     style="fill:#ff0000;fill-opacity:1;stroke:none"
     d="m 143.87628,121.06432 a 1.16702,1.16702 0 0 1 -2.33404,0 1.16702,1.16702 0 1 1 2.33404,0 z" />
  <path
     inkscape:connector-curvature="0"
     id="path3227"
     style="fill:none;stroke:#000000;stroke-width:1.5;stroke-linecap:butt;stroke-linejoin:round;stroke-miterlimit:4;stroke-opacity:1;stroke-dasharray:none;stroke-dashoffset:5.4"
     d="M 35.943141,17.303533 A 85.834728,35.501253 53.843738 0 1 137.22632,155.91133" />
  <path
     inkscape:connector-curvature="0"
     id="path3231"
     style="fill:none;stroke:#000000;stroke-width:1.5;stroke-linecap:butt;stroke-linejoin:round;stroke-miterlimit:4;stroke-opacity:1;stroke-dasharray:none;stroke-dashoffset:5.4"
     d="m 172.41946,86.607428 a 85.834728,45.671697 0 1 1 -171.669457,0" />
  <path
     inkscape:connector-curvature="0"
     id="path3239"
     style="fill:none;stroke:#000000;stroke-width:1.5;stroke-linecap:butt;stroke-linejoin:miter;stroke-miterlimit:4;stroke-opacity:1;stroke-dasharray:none"
     d="m 130.68249,125.82164 c -1.45872,-7.21478 2.42089,-15.17769 8.14895,-17.17101" />
  <g
     style="font-size:13.03455925px;font-style:normal;font-weight:normal;text-align:center;text-anchor:middle;fill:#000000;fill-opacity:1;stroke:none;font-family:Arial"
     id="text3245"
     transform="translate(-113.35061,55.851792)">
    <path
       d="m 129.22982,73.77507 0,-9.330402 3.50049,0 c 0.71282,9e-6 1.28457,0.09442 1.71524,0.283222 0.43066,0.188823 0.76798,0.479469 1.01196,0.87194 0.24397,0.392487 0.36596,0.802999 0.36596,1.231537 0,0.39885 -0.1082,0.774357 -0.32459,1.126522 -0.2164,0.352176 -0.54311,0.636458 -0.98014,0.852847 0.56432,0.165483 0.99817,0.447643 1.30155,0.846483 0.30337,0.398847 0.45506,0.869822 0.45507,1.412926 -1e-5,0.437033 -0.0923,0.843302 -0.27686,1.218807 -0.18458,0.375509 -0.41264,0.665095 -0.68419,0.868759 -0.27156,0.203665 -0.61206,0.357474 -1.02151,0.461428 -0.40945,0.103954 -0.91119,0.155931 -1.50521,0.155931 z m 1.23472,-5.409851 2.01755,0 c 0.54735,5e-6 0.93983,-0.03606 1.17744,-0.108197 0.31398,-0.09334 0.55053,-0.248211 0.70965,-0.464611 0.15911,-0.216388 0.23866,-0.487941 0.23867,-0.81466 -1e-5,-0.309733 -0.0743,-0.582347 -0.22276,-0.817842 -0.14851,-0.23548 -0.36066,-0.396714 -0.63645,-0.483704 -0.27581,-0.08697 -0.7489,-0.130465 -1.41929,-0.130473 l -1.86481,0 z m 0,4.308787 2.32305,0 c 0.39884,10e-7 0.67888,-0.01485 0.84012,-0.04455 0.28428,-0.05091 0.52189,-0.135776 0.71283,-0.254582 0.19093,-0.118803 0.34792,-0.291706 0.47097,-0.518709 0.12304,-0.226999 0.18457,-0.489006 0.18457,-0.786019 0,-0.347925 -0.0891,-0.65024 -0.26731,-0.906946 -0.17821,-0.256699 -0.42536,-0.437027 -0.74146,-0.540985 -0.31611,-0.10395 -0.77118,-0.155927 -1.3652,-0.155931 l -2.15757,0 z"
       id="path3877"
       inkscape:connector-curvature="0" />
  </g>
  <g
     style="font-size:13.03455925px;font-style:normal;font-weight:normal;text-align:center;text-anchor:middle;fill:#000000;fill-opacity:1;stroke:none;font-family:Arial"
     id="text3249"
     transform="translate(55.647909,-112.43963)">
    <path
       d="m 44.04607,157.00723 3.583231,-9.3304 1.330187,0 3.818718,9.3304 -1.406561,0 -1.088335,-2.82585 -3.901457,0 -1.02469,2.82585 z m 2.692197,-3.83144 3.163172,0 -0.973774,-2.584 c -0.297016,-0.78496 -0.517653,-1.42989 -0.661911,-1.93482 -0.118809,0.59827 -0.286408,1.19229 -0.502798,1.78207 z"
       id="path3868"
       inkscape:connector-curvature="0" />
  </g>
  <g
     style="font-size:13.03455925px;font-style:normal;font-weight:normal;text-align:center;text-anchor:middle;fill:#000000;fill-opacity:1;stroke:none;font-family:Arial"
     id="text3253"
     transform="translate(-28.144245,-29.001022)">
    <path
       d="m 182.36489,155.82325 1.23471,0.31186 c -0.25883,1.01409 -0.7245,1.78738 -1.39701,2.31987 -0.67253,0.5325 -1.49461,0.79875 -2.46626,0.79875 -1.0056,0 -1.82344,-0.20472 -2.45352,-0.61417 -0.63009,-0.40945 -1.10955,-1.00242 -1.43839,-1.77889 -0.32883,-0.77647 -0.49325,-1.61022 -0.49325,-2.50126 0,-0.97165 0.18563,-1.81919 0.5569,-2.54263 0.37126,-0.72343 0.89952,-1.2729 1.58477,-1.64841 0.68524,-0.3755 1.43944,-0.56326 2.26259,-0.56327 0.93346,1e-5 1.71841,0.23762 2.35487,0.71283 0.63645,0.47523 1.07984,1.1435 1.33019,2.00483 l -1.21562,0.2864 c -0.21641,-0.67887 -0.53039,-1.17318 -0.94195,-1.48293 -0.41158,-0.30974 -0.92923,-0.46461 -1.55295,-0.46461 -0.71708,0 -1.3164,0.17185 -1.79798,0.51552 -0.48159,0.3437 -0.81997,0.80512 -1.01514,1.38429 -0.19518,0.57918 -0.29277,1.17638 -0.29277,1.79161 0,0.79345 0.11562,1.48613 0.34687,2.07802 0.23124,0.59191 0.59083,1.03424 1.07878,1.32701 0.48795,0.29277 1.0162,0.43915 1.58477,0.43915 0.69161,0 1.27714,-0.19942 1.75661,-0.59827 0.47946,-0.39884 0.80405,-0.99074 0.97378,-1.7757 z"
       id="path3862"
       inkscape:connector-curvature="0" />
  </g>
  <path
     inkscape:connector-curvature="0"
     id="path3257"
     style="fill:none;stroke:#000000;stroke-width:1.5;stroke-linecap:butt;stroke-linejoin:miter;stroke-miterlimit:4;stroke-opacity:1;stroke-dasharray:none"
     d="m 38.514633,110.90302 c 5.442458,2.05207 6.389191,9.5129 3.333605,14.69707" />
  <g
     style="font-size:15.12818813px;font-style:normal;font-variant:normal;font-weight:normal;font-stretch:normal;text-align:center;line-height:125%;writing-mode:lr-tb;text-anchor:middle;fill:#000000;fill-opacity:1;stroke:none;font-family:Arial;-inkscape-font-specification:Arial"
     id="text3263"
     transform="translate(13.928608,-73.902303)">
    <path
       d="m 116.92664,158.48157 -1.23359,0 0,-10.82907 1.32962,0 0,3.8633 c 0.5614,-0.7042 1.27792,-1.0563 2.14956,-1.05631 0.4826,1e-5 0.93936,0.0973 1.37026,0.29178 0.43089,0.19453 0.78546,0.46784 1.0637,0.81994 0.27823,0.35211 0.49614,0.77685 0.65373,1.27422 0.15758,0.49738 0.23637,1.02923 0.23638,1.59555 -1e-5,1.3444 -0.33241,2.38348 -0.99722,3.11724 -0.66482,0.73375 -1.46259,1.10063 -2.39333,1.10063 -0.92581,0 -1.65218,-0.38658 -2.17911,-1.15973 z m -0.0148,-3.98149 c 0,0.94059 0.12804,1.62017 0.38411,2.03876 0.41859,0.68451 0.98491,1.02676 1.69897,1.02676 0.58109,0 1.08339,-0.25238 1.50691,-0.75715 0.4235,-0.50476 0.63526,-1.25698 0.63527,-2.25667 -1e-5,-1.0243 -0.20315,-1.78021 -0.60942,-2.26775 -0.40628,-0.48752 -0.8975,-0.73128 -1.47366,-0.73129 -0.5811,1e-5 -1.08341,0.25239 -1.50691,0.75715 -0.42352,0.50477 -0.63527,1.23483 -0.63527,2.19019 z"
       style="font-family:Arial;-inkscape-font-specification:Arial"
       id="path3865"
       inkscape:connector-curvature="0" />
  </g>
  <g
     style="font-size:15.12818813px;font-style:normal;font-variant:normal;font-weight:normal;font-stretch:normal;text-align:center;line-height:125%;writing-mode:lr-tb;text-anchor:middle;fill:#000000;fill-opacity:1;stroke:none;font-family:Arial;-inkscape-font-specification:Arial"
     id="text3267"
     transform="translate(-71.277759,17.314472)">
    <path
       d="m 161.3272,110.7142 c -0.49246,0.41858 -0.96645,0.71406 -1.42196,0.88641 -0.45553,0.17236 -0.94429,0.25854 -1.46628,0.25854 -0.8618,0 -1.52415,-0.21052 -1.98706,-0.63157 -0.4629,-0.42105 -0.69436,-0.95905 -0.69436,-1.61402 0,-0.38411 0.0874,-0.73498 0.26224,-1.05262 0.17482,-0.31763 0.40381,-0.57247 0.68697,-0.76453 0.28316,-0.19206 0.60202,-0.33733 0.95659,-0.43582 0.261,-0.0689 0.65496,-0.13543 1.18189,-0.19945 1.07355,-0.12803 1.86393,-0.28069 2.37117,-0.45798 0.005,-0.1822 0.007,-0.29793 0.007,-0.34718 0,-0.54169 -0.12558,-0.92335 -0.37672,-1.14496 -0.3398,-0.30039 -0.84457,-0.45059 -1.5143,-0.45059 -0.62542,0 -1.0871,0.10958 -1.38503,0.32871 -0.29793,0.21915 -0.51831,0.60696 -0.66112,1.16342 l -1.30007,-0.17728 c 0.11818,-0.55647 0.3127,-1.00583 0.58355,-1.34809 0.27085,-0.34225 0.66235,-0.60571 1.17451,-0.79039 0.51215,-0.18466 1.10555,-0.277 1.78022,-0.27701 0.66973,1e-5 1.21389,0.0788 1.63248,0.23638 0.41858,0.15759 0.72637,0.35581 0.92335,0.59464 0.19698,0.23885 0.33487,0.54047 0.41367,0.90488 0.0443,0.22654 0.0665,0.63528 0.0665,1.22621 l 0,1.77284 c -1e-5,1.23606 0.0283,2.01783 0.0849,2.34531 0.0566,0.32748 0.16866,0.64142 0.3361,0.94182 l -1.38872,0 c -0.13789,-0.27577 -0.22653,-0.59833 -0.26592,-0.96767 z m -0.1108,-2.9695 c -0.48261,0.19698 -1.20652,0.36442 -2.17173,0.5023 -0.54662,0.0788 -0.9332,0.16744 -1.15972,0.26593 -0.22654,0.0985 -0.40136,0.24253 -0.52447,0.43213 -0.12311,0.18959 -0.18467,0.40012 -0.18467,0.63157 0,0.35457 0.13419,0.65004 0.40258,0.88642 0.26839,0.23637 0.66112,0.35456 1.1782,0.35456 0.51215,0 0.96767,-0.11203 1.36656,-0.3361 0.39888,-0.22406 0.69189,-0.53061 0.87903,-0.91966 0.14281,-0.30039 0.21421,-0.7436 0.21422,-1.32962 z"
       style="font-family:Arial;-inkscape-font-specification:Arial"
       id="path3871"
       inkscape:connector-curvature="0" />
  </g>
  <g
     style="font-size:15.12818813px;font-style:normal;font-variant:normal;font-weight:normal;font-stretch:normal;text-align:center;line-height:125%;writing-mode:lr-tb;text-anchor:middle;fill:#000000;fill-opacity:1;stroke:none;font-family:Arial;-inkscape-font-specification:Arial"
     id="text3273"
     transform="translate(-28.144245,-29.001022)">
    <path
       d="m 91.501156,108.62783 1.307465,0.16989 c -0.142819,0.9012 -0.508466,1.60664 -1.096941,2.11633 -0.588489,0.50969 -1.311164,0.76453 -2.168029,0.76453 -1.073553,0 -1.936578,-0.35087 -2.589077,-1.05262 -0.652503,-0.70175 -0.978753,-1.70758 -0.978753,-3.01751 0,-0.84702 0.140349,-1.58816 0.421049,-2.22343 0.280697,-0.63526 0.707901,-1.11171 1.281611,-1.42935 0.573706,-0.31763 1.197891,-0.47644 1.872557,-0.47645 0.85194,1e-5 1.548762,0.21546 2.090467,0.64635 0.541693,0.4309 0.888872,1.04277 1.04154,1.83562 l -1.292691,0.19944 c -0.12312,-0.52692 -0.341031,-0.92334 -0.653733,-1.18927 -0.312714,-0.26592 -0.690672,-0.39888 -1.133876,-0.39889 -0.669741,1e-5 -1.213902,0.24008 -1.632485,0.72021 -0.418588,0.48015 -0.627881,1.23976 -0.627879,2.27883 -2e-6,1.05386 0.201904,1.81962 0.605719,2.2973 0.403809,0.47768 0.930734,0.71652 1.580777,0.71652 0.521997,0 0.957818,-0.16004 1.307466,-0.48014 0.349636,-0.32009 0.57124,-0.81255 0.664813,-1.47736 z"
       style="font-family:Arial;-inkscape-font-specification:Arial"
       id="path3874"
       inkscape:connector-curvature="0" />
  </g>
  <path
     inkscape:connector-curvature="0"
     id="path3278"
     style="fill:none;stroke:#000000;stroke-width:1.5;stroke-linecap:butt;stroke-linejoin:miter;stroke-miterlimit:4;stroke-opacity:1;stroke-dasharray:none"
     d="m 94.678775,58.094253 c 2.79562,4.467435 11.816355,5.440843 15.629085,1.352717" />
</svg>
